<svg width="68" height="34" viewBox="0 0 68 34" fill="none" xmlns="http://www.w3.org/2000/svg">
<path fill-rule="evenodd" clip-rule="evenodd" d="M67.25 17C67.25 16.5027 66.9997 16.0258 66.5544 15.6742C66.109 15.3225 65.5049 15.125 64.875 15.125H8.85822L23.8065 3.32749C24.0273 3.15316 24.2025 2.9462 24.322 2.71843C24.4415 2.49065 24.503 2.24653 24.503 1.99999C24.503 1.75345 24.4415 1.50932 24.322 1.28155C24.2025 1.05378 24.0273 0.846817 23.8065 0.672488C23.5857 0.498158 23.3235 0.359873 23.035 0.265526C22.7465 0.171179 22.4373 0.12262 22.125 0.12262C21.8127 0.12262 21.5035 0.171179 21.215 0.265526C20.9264 0.359873 20.6643 0.498158 20.4435 0.672488L1.44347 15.6725C1.2223 15.8467 1.04682 16.0536 0.927088 16.2814C0.807358 16.5092 0.745728 16.7534 0.745728 17C0.745728 17.2466 0.807358 17.4908 0.927088 17.7186C1.04682 17.9464 1.2223 18.1533 1.44347 18.3275L20.4435 33.3275C20.6643 33.5018 20.9264 33.6401 21.215 33.7345C21.5035 33.8288 21.8127 33.8774 22.125 33.8774C22.4373 33.8774 22.7465 33.8288 23.035 33.7345C23.3235 33.6401 23.5857 33.5018 23.8065 33.3275C24.0273 33.1532 24.2025 32.9462 24.322 32.7184C24.4415 32.4907 24.503 32.2465 24.503 32C24.503 31.7534 24.4415 31.5093 24.322 31.2815C24.2025 31.0538 24.0273 30.8468 23.8065 30.6725L8.85822 18.875H64.875C65.5049 18.875 66.109 18.6774 66.5544 18.3258C66.9997 17.9742 67.25 17.4973 67.25 17Z" fill="black"/>
</svg>
