<svg width="28" height="28" viewBox="0 0 28 28" fill="none" xmlns="http://www.w3.org/2000/svg">
<path d="M0 1C0 0.734784 0.098334 0.48043 0.27337 0.292893C0.448405 0.105357 0.685804 0 0.933342 0H3.73337C3.94156 6.1623e-05 4.14376 0.0747014 4.3078 0.212049C4.47185 0.349398 4.58833 0.541568 4.63871 0.758L5.39472 4H27.0669C27.2087 4.00004 27.3486 4.03469 27.476 4.10131C27.6034 4.16792 27.715 4.26477 27.8022 4.38448C27.8895 4.50419 27.9502 4.64363 27.9796 4.79222C28.0091 4.9408 28.0066 5.09462 27.9723 5.242L25.1722 17.242C25.1218 17.4584 25.0054 17.6506 24.8413 17.788C24.6773 17.9253 24.4751 17.9999 24.2669 18H7.46674C7.25854 17.9999 7.05634 17.9253 6.8923 17.788C6.72825 17.6506 6.61178 17.4584 6.56139 17.242L3.00536 2H0.933342C0.685804 2 0.448405 1.89464 0.27337 1.70711C0.098334 1.51957 0 1.26522 0 1ZM5.86139 6L6.79473 10H9.33342V6H5.86139ZM11.2001 6V10H14.9335V6H11.2001ZM16.8002 6V10H20.5335V6H16.8002ZM22.4002 6V10H24.9389L25.8722 6H22.4002ZM24.4722 12H22.4002V16H23.5389L24.4722 12ZM20.5335 12H16.8002V16H20.5335V12ZM14.9335 12H11.2001V16H14.9335V12ZM9.33342 12H7.2614L8.19474 16H9.33342V12ZM9.33342 22C8.83834 22 8.36355 22.2107 8.01347 22.5858C7.6634 22.9609 7.46674 23.4696 7.46674 24C7.46674 24.5304 7.6634 25.0391 8.01347 25.4142C8.36355 25.7893 8.83834 26 9.33342 26C9.8285 26 10.3033 25.7893 10.6534 25.4142C11.0034 25.0391 11.2001 24.5304 11.2001 24C11.2001 23.4696 11.0034 22.9609 10.6534 22.5858C10.3033 22.2107 9.8285 22 9.33342 22ZM5.60005 24C5.60005 22.9391 5.99339 21.9217 6.69353 21.1716C7.39367 20.4214 8.34327 20 9.33342 20C10.3236 20 11.2732 20.4214 11.9733 21.1716C12.6735 21.9217 13.0668 22.9391 13.0668 24C13.0668 25.0609 12.6735 26.0783 11.9733 26.8284C11.2732 27.5786 10.3236 28 9.33342 28C8.34327 28 7.39367 27.5786 6.69353 26.8284C5.99339 26.0783 5.60005 25.0609 5.60005 24ZM22.4002 22C21.9051 22 21.4303 22.2107 21.0803 22.5858C20.7302 22.9609 20.5335 23.4696 20.5335 24C20.5335 24.5304 20.7302 25.0391 21.0803 25.4142C21.4303 25.7893 21.9051 26 22.4002 26C22.8953 26 23.3701 25.7893 23.7201 25.4142C24.0702 25.0391 24.2669 24.5304 24.2669 24C24.2669 23.4696 24.0702 22.9609 23.7201 22.5858C23.3701 22.2107 22.8953 22 22.4002 22ZM18.6668 24C18.6668 22.9391 19.0602 21.9217 19.7603 21.1716C20.4605 20.4214 21.4101 20 22.4002 20C23.3904 20 24.34 20.4214 25.0401 21.1716C25.7402 21.9217 26.1336 22.9391 26.1336 24C26.1336 25.0609 25.7402 26.0783 25.0401 26.8284C24.34 27.5786 23.3904 28 22.4002 28C21.4101 28 20.4605 27.5786 19.7603 26.8284C19.0602 26.0783 18.6668 25.0609 18.6668 24Z" fill="#05BC52"/>
</svg>
